<svg xmlns="http://www.w3.org/2000/svg" xmlns:xlink="http://www.w3.org/1999/xlink" viewBox="0 0 460 300"><style><![CDATA[.f{opacity:.7}.g{fill:#464646}.h{enable-background:new}.i{fill:#fff}.j{fill:#a0a0a0}.k{fill:#d1cdcc}.l{fill:#fdbb16}.m{fill:#e8ede5}.n{fill:#ccd793}.o{fill:#f67f14}.p{fill:#00b8c5}]]></style><defs><path id="A" d="M460 300H0V144.3l108.3 11.1-19.2 60.7 105.9 5.8 11.9-32.2 170.8 37.9 43.2 63.9 39.1-7z"/><path id="B" d="M-8.6 151.1h119l-35.1 70.2h124.2l5.2-33.4h88.6l8.5 33.4h82.3l32 67.8h65.8"/><path id="C" d="M75 87.1v62.5s21.4-24 21.4-41.1c0-11.8-9.6-21.4-21.4-21.4z"/></defs><clipPath id="D"><use xlink:href="#A"/></clipPath><g clip-path="url(#D)"><path d="M450.1 209.2l21.7 33.8v-69.4l-18.3-22.5h-40.9l33.8 52.4h19.4v5.7zM-12 241.5l20.8-32.3H-12zm17.3-90.4L-12 172.4v31.1h24.5l33.7-52.4z" class="m"/><path d="M471.8 380.6h-.2l-2.3-4.9-15.9-33.1h12.4v-13.8h-19l-29.3-61h48.4v-8.6h-52.6l-24.1-50H437l34.8 54V243L450 209.2h15.7v-5.8h-19.4l-33.7-52.3h40.9l18.3 22.4v-17.4L462 144l-3.3-3.9H.2l-3.3 3.9-8.9 11v17.4l17.4-21.3h40.8l-33.7 52.3H-12v5.8H8.8L-12 241.5v26.4h53.5l-29.3 60.9H-12v13.8H5.5L-12 379v12.4h483.8v-10.8zm-37.3-51.8h-64.7l-19.4-61h54.8l29.3 61zM401 259.3h-53.3l-15.9-50H377l24 50zm-258.6-50h47.7l-8.5 50h-56.2l17-50zm-28.6 50h-56l24.1-50h48.9l-17 50zm77.4 8.6h77.4l9.8 61h-97.6l10.4-61zm87.1-8.6l-8.1-50h50l15.9 50h-57.8zm121.3-108.2l33.7 52.3h-46.9l-25.2-52.3h38.4zm-50.6 0l25.2 52.3H330l-16.6-52.3H349zm-47.2 0l16.6 52.3h-49.1l-8.5-52.3h41zm-90.8 0h38.7l8.4 52.3h-56l8.9-52.3zm48.1 58.1l8.1 50h-74.5l8.5-50h57.9zM200 151.1l-8.9 52.3h-46.8l17.8-52.3H200zm-49.4 0l-17.8 52.3H84.7l25.2-52.3h40.7zm-91.3 0h38.4l-25.2 52.3h-47l33.8-52.3zm-69.7 108.2l32.2-50h47.9l-24.1 50h-56zm64.1 8.6h57.2l-20.7 60.9H24.3l29.4-60.9zm18.8 112.7H-.6l18.3-38h67.8L73.8 377l-1.3 3.6zm88.8-1.9l-.3 1.9H84.1l12.9-38h70.4l-6.1 36.1zm-59.6-49.9l20.7-61h57.7l-10.4 61h-68zm70.3 51.8l6.5-38h102.2l6.1 38H172zm107.7-112.7h59.2l19.4 61h-68.7l-9.9-61zm18.2 112.7l-.3-1.9-5.8-36.1h70.9l12.1 38h-76.9zm88.3 0l-1.1-3.5-11-34.5h67l18.3 38h-73.2z" class="i"/><g class="m"><path d="M69.7 209.2H21.8l-32.2 50.1h56zm402.1 54.1L437 209.2h-47.9l24.1 50.1h52.6v8.6h-48.4l29.3 60.9h19.1v13.8h-12.4l15.9 33.1 2.3 4.9h.2zM72.5 203.5l25.1-52.4H59.2l-33.7 52.4zm360.8 0l-33.7-52.4h-38.4l25.2 52.4zM-12 267.9v60.9h24.2l29.3-60.9zm144.8-64.4l17.8-52.4h-40.8l-25.1 52.4zm-75 55.8h56l17-50.1H81.9zm316.4-55.8L349 151.1h-35.7l16.6 52.4zm31 64.4h-54.8l19.4 60.9h64.7zM377 209.2h-45.2l15.9 50.1H401zm-266.1 58.7H53.7l-29.4 60.9h65.8zm167.4-8.6h57.9l-15.9-50.1h-50.1z"/><path d="M125.4 259.3h56.2l8.5-50.1h-47.7zm54.7 8.6H89.5l-10 60.9h90.2z"/></g><path d="M56 320.2c-9.3 0-14-7-10.3-15.6l6.1-14.2c3.7-8.6 14.4-15.6 23.7-15.6h77.4c9.4 0 15.8 7.5 14.3 16.8l-1.9 11.9c-1.5 9.2-10.4 16.8-19.8 16.8l-89.5-.1z" fill="#aadada"/><path d="M338.9 267.9h-59.2l9.8 60.9h68.8zm-20.5-64.4l-16.6-52.4h-40.9l8.4 52.4zm-127.3 0l8.9-52.4h-37.9l-17.8 52.4zm1.6 55.8h74.5l-8.1-50.1h-57.9zm65.5-55.8l-8.4-52.4h-38.7l-8.9 52.4zm10.4 64.4h-77.4l-10.4 60.9h97.7z" class="m"/><path d="M219.6 302.3c-4.4 0-8-3.5-8-7.8V287c0-4.4-3.2-8-7-8s-7.5 3.6-8.1 7.9l-3.7 26.5c-.6 3.7 1.9 7.2 5.6 7.8.4.1.9.1 1.3.1h62.6c3.6.2 6.6-2.6 6.7-6.2 0-.6 0-1.1-.2-1.7l-.7-3.8c-1-4.5-4.9-7.7-9.4-7.8l-39.1.5zm10-19.9c-2.6-3.5-1.1-6.5 3.3-6.5h21.4c4.4 0 8.5 3.4 9.2 7.5s-2.5 7.5-6.9 7.5h-12.8c-5-.3-9.6-2.6-12.8-6.5l-1.4-2z" class="k"/><path d="M298 277.6c-3.6-.1-6.6 2.7-6.7 6.3 0 .6 0 1.1.1 1.6l4.5 25.1c.9 4.5 4.8 7.7 9.4 7.9h33.5c4.4 0 6.9-3.5 5.7-7.7l-7.9-25.7c-1.6-4.4-5.7-7.4-10.3-7.6l-28.3.1z" class="n"/><path d="M364 283.4c-1.3-3.8 1.3-6.9 5.7-6.9h24.8c4.4 0 9.5 3.1 11.5 6.9s-.1 6.9-4.5 6.9h-27.1c-4.5 0-9.2-3.1-10.4-6.9zm7.8 21.9c-1.5-4.1.9-7.5 5.3-7.5h27.1c4.9.3 9.3 2.9 11.8 7l2.7 4.9c2.1 3.9.2 7-4.2 7h-30.8c-4.7-.2-8.9-3.2-10.7-7.5l-1.2-3.9z" class="k"/><path d="M171.2 229.2c4.4 0 8.6-3.1 9.4-6.8s-2.3-6.8-6.6-6.8h-19c-4.4 0-8.9 3.1-10.1 6.8s1.5 6.8 5.9 6.8h20.4z" class="o"/><path d="M149.6 232.6c-4.7.2-8.8 3.2-10.4 7.6l-1 3.3c-1.3 4.2 1.3 7.6 5.6 7.6h22.9c4.6-.2 8.5-3.4 9.6-7.9l.6-2.9c.8-3.4-1.2-6.8-4.6-7.7-.6-.1-1.2-.2-1.8-.2h-20.9z" class="k"/><path d="M11.6 248.9h23c4.8-.3 9.2-2.9 11.7-7.1l9.2-17.5c2.1-3.9.1-7.1-4.3-7.1h-.1c-4.8.3-9.2 2.9-11.8 7.1l-2.3 4.3c-2.5 4.2-6.9 6.8-11.8 7.1h-3.5c-5 .3-9.7 2.5-13.1 6.2l-.6.8c-2.8 3.4-1.5 6.2 2.9 6.2h.7z" class="n"/><path d="M433.6 276.7c2 .4 38.5 0 38.5 0v22.8h-27l-11.5-22.8zm-406 0c-2 .4-38.5 0-38.5 0v22.8h27l11.5-22.8z" class="k"/><path d="M247.8 217.3c2.2 0 4.5 3.6 5 7.9l2.2 17.5c.6 3.8-2 7.3-5.8 7.9-.4.1-.8.1-1.2.1h-11.7c-4.4 0-8-3.1-8-6.9s3.5-6.9 7.8-6.9c4.3-.1 7.8-3.7 7.8-8v-3.6c-.1-4.4 1.7-8 3.9-8z" fill="#ead0be"/><path d="M51 186.8c-3.7 0-8 2.2-9.4 4.9s.8 4.9 4.9 4.9 8.4-2.2 9.4-4.9-1.1-4.9-4.9-4.9z" class="n"/></g><defs><path id="E" d="M0 118.9h460V300H0z"/></defs><clipPath id="F"><use xlink:href="#E"/></clipPath><g clip-path="url(#F)" fill="none" stroke-linejoin="round"><use xlink:href="#B" stroke="#777" stroke-width="38"/><use xlink:href="#B" stroke="#fff" stroke-width="25"/><use xlink:href="#B" stroke="#777" stroke-width="19"/><g stroke="#fff" stroke-width="2" stroke-linecap="round"><path d="M13.7 150.6h81.8" stroke-dasharray="14.86,14.86"/><path d="M102.9 150.6h7.5l-3.3 6.7"/><path d="M101.4 168.6l-19.9 39.7" stroke-dasharray="12.69,12.69"/><path d="M78.7 214l-3.4 6.7h7.5"/><path d="M98.4 220.7h85.8" stroke-dasharray="15.6,15.6"/><path d="M192 220.7h7.5l1.2-7.4m2.9-18.5l1.1-7.4h7.5"/><path d="M226.9 187.4h51.5" stroke-dasharray="14.71,14.71"/><path d="M285.8 187.4h7.5l1.8 7.2m4.8 18.9l1.9 7.2h7.5"/><path d="M322.8 220.7h47.1" stroke-dasharray="13.46,13.46"/><path d="M376.6 220.7h7.5l3.2 6.8"/><path d="M392.4 238.4l17.9 38" stroke-dasharray="12,12"/><path d="M412.9 281.8l3.2 6.8h7.5"/><path d="M440.5 288.6h25.4" stroke-dasharray="16.93,16.93"/></g></g><path d="M96.5 108.5c0 17-21.4 41.1-21.4 41.1s-21.4-24.5-21.4-41.1c-.3-11.8 9.1-21.6 21-21.9 11.8-.3 21.6 9.1 21.9 21-.1.3-.1.6-.1.9z" class="o"/><use xlink:href="#C" class="f g h"/><path d="M91.1 108.5c0 8.9-7.2 16.1-16.1 16.1s-16-7.2-16-16.1 7.2-16.1 16-16.1c8.9 0 16.1 7.2 16.1 16.1z" class="i"/><path d="M452.4 243.7c0 17-21.4 41.1-21.4 41.1s-21.4-24.5-21.4-41.1c0-11.8 9.6-21.4 21.4-21.4s21.4 9.5 21.4 21.4z" fill="#00a651"/><use xlink:href="#C" x="356" y="135.1" class="f g h"/><path d="M447.1 243.7c0 8.9-7.2 16.1-16.1 16.1s-16.1-7.2-16.1-16.1 7.2-16.1 16.1-16.1 16.1 7.2 16.1 16.1z" class="i"/><path d="M180.5 178.7c0 17-21.4 41.1-21.4 41.1s-21.4-24.4-21.4-41.1c-.3-11.8 9.1-21.6 21-21.9s21.6 9.1 21.9 21c-.1.3-.1.6-.1.9z" fill="#30b8bb"/><use xlink:href="#C" x="84" y="70.1" class="f g h"/><path d="M175.1 178.7c0 8.9-7.2 16.1-16.1 16.1s-16.1-7.2-16.1-16.1 7.2-16.1 16-16.1c9 0 16.2 7.2 16.2 16.1 0-.1 0 0 0 0z" class="i"/><path d="M358.4 177.1c0 17-21.4 41.1-21.4 41.1s-21.4-24.4-21.4-41.1c0-11.8 9.6-21.4 21.4-21.4s21.4 9.5 21.4 21.4z" fill="#ffba14"/><use xlink:href="#C" x="262" y="68.5" class="f g h"/><path d="M353.1 177.1c0 8.9-7.2 16.1-16 16.1S321 186 321 177.1s7.2-16.1 16-16.1c8.9 0 16.1 7.2 16.1 16.1z" class="i"/><path d="M336.9 161l-.3 5.6c-1 .9-4.1 3.8-4.1 5.6 0 1.2.6 2.3 1.5 3l-.4 3.6h-2.4l-.3-2.2c.6-.5 1-1.2 1-1.9 0-1.2-2-3.1-2.6-3.7l-.2-4.9-.2 4.9c-.7.6-2.6 2.5-2.6 3.7 0 .8.4 1.5 1 1.9l-.3 2.2h-.7v2.1h.7v8.2h20.1V181h.7v-2.1h-.8l-.3-2.2c.6-.5 1-1.2 1-1.9 0-1.2-2-3.1-2.6-3.7l-.2-4.9-.2 4.9c-.7.6-2.6 2.5-2.6 3.7 0 .8.4 1.5 1 1.9l-.3 2.2h-2.4l-.4-3.6c1-.7 1.5-1.8 1.5-3 0-1.8-3-4.7-4.1-5.6l-.3-5.6h-.2v-.1zm1.7 21.2v5.6h-3.3v-5.6c0-.9.7-1.6 1.7-1.6a1.58 1.58 0 0 1 1.6 1.6z" fill="#ffba14"/><path d="M338.6 182.2v5.6H337v1.4h10.1V181h.7v-2.1h-.8l-.3-2.2c.6-.5 1-1.2 1-1.9 0-1.2-2-3.1-2.6-3.7l-.2-4.9-.2 4.9c-.7.6-2.6 2.5-2.6 3.7 0 .8.4 1.5 1 1.9l-.3 2.2h-2.4l-.4-3.6c1-.7 1.5-1.8 1.5-3 0-1.8-3-4.7-4.1-5.6l-.3-5.6h-.1v19.6c.9-.1 1.7.6 1.6 1.5z" class="f g h"/><path d="M31.3 287.5c0 1.3-.5 2.5-1.3 3.4-1.2 1.2-2.8 1.8-4.4 1.7-1.7.1-3.3-.5-4.4-1.7-.9-1-1.3-2.2-1.3-3.5 0-1.2.5-2.4 1.3-3.3 1.2-1.2 2.8-1.8 4.5-1.7 1.6-.1 3.2.6 4.3 1.7.9.9 1.3 2.1 1.3 3.4zm-3.5 0c0-.6-.2-1.2-.6-1.6s-1-.7-1.6-.6c-.7 0-1.3.3-1.7.8-.7.8-.7 2.1 0 2.9.4.5 1 .8 1.7.8 1.2-.1 2.2-1.1 2.2-2.3zm16.3 0c0 1.3-.4 2.5-1.3 3.4-1.2 1.2-2.8 1.8-4.4 1.7-1.7.1-3.3-.5-4.4-1.7-.9-.9-1.3-2.2-1.3-3.5 0-1.2.5-2.4 1.3-3.3 1.2-1.2 2.8-1.8 4.5-1.7 1.6-.1 3.2.6 4.3 1.7.9.9 1.3 2.1 1.3 3.4zm-3.5 0c0-.6-.2-1.2-.7-1.6-.4-.4-1-.7-1.6-.6-.7 0-1.3.3-1.7.8-.7.8-.7 2.1 0 2.9.4.5 1 .8 1.7.8.6 0 1.2-.2 1.6-.6.5-.6.7-1.2.7-1.7zm28.5 4.7h-3.4v-1.1c-.3.4-.6.7-1 .9-.6.3-1.3.5-2 .5-1.2 0-2.3-.4-3.2-1.2-2.1-2-2.3-5.4-.2-7.5l.2-.2c.9-.8 2-1.2 3.1-1.2.7 0 1.3.1 1.9.4a4.44 4.44 0 0 1 1.1.8v-.9H69l.1 9.5zm-3.3-4.7c0-.6-.2-1.1-.6-1.5s-1-.6-1.5-.6c-.6 0-1.2.3-1.7.8a2.13 2.13 0 0 0 0 2.8c.4.5 1 .8 1.7.8 1.2-.2 2.1-1.1 2.1-2.3zm37 4.7h-3.4v-1.1c-.3.4-.6.7-1 .9-.6.3-1.3.5-2 .5-1.2 0-2.3-.4-3.2-1.2-2.1-2-2.3-5.4-.2-7.5l.2-.2c.8-.8 2-1.2 3.1-1.2.7 0 1.3.1 1.9.4a4.44 4.44 0 0 1 1.1.8v-.9h3.4l.1 9.5zm-3.3-4.7c0-.6-.2-1.1-.6-1.5s-1-.6-1.5-.6c-.6 0-1.2.3-1.7.8a2.13 2.13 0 0 0 0 2.8c.4.5 1 .8 1.7.8.6 0 1.1-.2 1.6-.6.3-.6.5-1.2.5-1.7z" class="j"/><path d="M14.2 287.2h-3v-2.8h2.9" fill="#777"/><path d="M53.6 282.7l-2.5 4.9-2.6-4.9h-3.9l4.6 8.2L46 297l1.5-2.7 1.1 2.7h1.2l7.7-14.3z" class="j"/><path d="M46 297h2.6l-1.1-2.7z" class="l"/><path d="M15.6 279a5.3 5.3 0 0 0-1.5-.8c-.9-.3-1.8-.5-2.7-.5v3.2c.7 0 1.3.3 1.8.7.4.4.7.8.9 1.3 0 .1.1.1.1.2l3.5-1.4c-.4-1-1.2-2-2.1-2.7z" fill="#00c12d"/><path d="M11.3 289.6c-.9 0-1.9-.3-2.5-1-.9-.9-1.3-2.1-1.3-3.3a6.28 6.28 0 0 1 .3-1.9c.4-1.5 1.8-2.5 3.3-2.5h.2v-3.2c-2.2-.1-4.3.8-5.8 2.4-1.2 1.4-1.9 3.3-1.8 5.2-.1 1.7.5 3.4 1.5 4.7 1.4 1.8 3.6 2.8 5.9 2.6 1.5 0 2.9-.4 4.1-1.1l-1.9-2.7c-.4.5-1.2.8-2 .8z" class="j"/><path d="M15.4 291.5c1.2-.8 2.1-2 2.6-3.4.4-1.2.6-2.5.5-3.7l-4.2 2.8c-.1.6-.3 1.1-.7 1.6" class="p"/><path d="M14.1 284.4h-2.9v2.8h3l4.3-2.8z" class="l"/><path d="M104.8,287.2v-4.5h3.4" class="p"/><path d="M104.8,284.3v-1.6h1.4" class="l"/><path d="M114.3 283.6c-.9-.8-2-1.2-3.2-1.2-.7 0-1.4.1-2 .5-.4.2-.7.5-1 .9v-1.1l-3.4 4.5v9.8h3.4v-5.7a4.44 4.44 0 0 0 1.1.8c.6.3 1.3.4 1.9.4 1.1 0 2.2-.4 3.1-1.2 2.1-2 2.3-5.4.2-7.5 0 0-.1-.1-.1-.2zm-2.3 5.3c-.8.9-2.1 1-3.1.3-.5-.4-.8-1-.8-1.7a2.22 2.22 0 0 1 2.2-2.2c.6 0 1.2.3 1.7.8.3.4.5.9.5 1.4s-.2 1-.5 1.4z" class="j"/><path d="M79.3 285.8v6.9H76v-4" class="l"/><path d="M85.2 278.8l-2.4 8.7-2.5-8.7H76v10.1l3.3-3.1 1.8 7.1h3.3l2-7.1 3.1-3v-4z" class="j"/><path d="M86.4 285.8v7.1h3.1v-10.1z" class="p"/><path d="M76,290.4v2.5h3.2v-2.5H76z" fill="#00c12d"/><path d="M437.4 248.7l-2.6-4.7h1.1l-2.9-5.4h1l-3.5-6.2-3.4 6.2h1l-3 5.4h1.2l-2.6 4.7h6.1v2h1.5v-2zm-14.2-.9v-1.6h1.2l.8-1.6h-1.1l2.2-4-1.7-2.9h.8l-2.9-5.3-2.9 5.3h.9l-2.5 4.5h1l-2.2 4h5.1v1.6z" fill="#00a651"/><path d="M442.1 242.2h1l-2.5-4.5h.8l-2.9-5.3-2.9 5.3h.8l-1.6 2.9 2.2 4h-1.2l.9 1.6h1.2v1.6h1.3v-1.6h5.1z" fill="#8bc751"/><path d="M431.3 250.7v-2h6.1l-2.6-4.7h1.1l-2.9-5.4h1l-3.5-6.2v18.3z" class="f g h"/><path d="M83.2 101.1H85l-9.7-6.3-3.7 2.3v-.7h.2v-1.2h-3.1v1.2h.3v2.4l-3.5 2.2h1.8v9.1h-.8v1.1h.8v10h15.9v-10h.8v-1.1h-.8v-9zm-4.2 1.5h2.2v2.2H79v-2.2zm0 2.9h2.2v2.2H79v-2.2zm-3-2.9h2.2v2.2H76v-2.2zm0 2.9h2.2v2.2H76v-2.2zm-3.6-2.9h2.2v2.2h-2.2v-2.2zm0 2.9h2.2v2.2h-2.2v-2.2zm-3-2.9h2.2v2.2h-2.2v-2.2zm0 2.9h2.2v2.2h-2.2v-2.2zm3.8 14.4h-3.4V114c0-.8.6-1.4 1.4-1.4h.5c.8 0 1.4.6 1.4 1.4l.1 5.9zm4.5-2.2h-2.2v-2.2h2.2v2.2zm0-2.9h-2.2v-2.2h2.2v2.2zm3.1 2.9h-2.2v-2.2h2.2v2.2zm0-2.9h-2.2v-2.2h2.2v2.2z" class="o"/><path d="M169.7 186.9h-3.1l-2.4-4.1c-.1-.3-.3-.5-.5-.8.3-.2.5-.4.8-.6h.4l.9-.9v-.5a9.67 9.67 0 0 0 2-4.9l.3-.3v-1.3l-.3-.2a9.67 9.67 0 0 0-2-4.9v-.4l-.9-.9-.4.1a7.2 7.2 0 0 0-2.7-1.5c-.7-.3-1.5-.4-2.2-.5l-.2-.3h-1.3l-.3.3a9.67 9.67 0 0 0-4.9 2h-.4l-.9.9v.4a9.67 9.67 0 0 0-2 4.9l-.3.3v1.3l.3.3c.1 1.3.6 2.6 1.3 3.7.2.4.5.7.8 1.1v.4l.9.9h.4c.3.2.5.4.8.6l-2.1 3.6-.8 1.3h-3.1l-1.2 1.7h24.2l-1.1-1.7zm-10.1-4.1l-.2-.2h-.5v-2.9a4.53 4.53 0 0 0 1.6-.3l1.1 3c-.7.2-1.4.3-2 .4zm-3.6-.5l1.1-3c.5.2 1 .3 1.6.3v2.9h-.5l-.2.2c-.7 0-1.4-.2-2-.4zm-2.7-1.7l-.9-.9h-.3c-.3-.3-.5-.6-.7-1l2.8-1.6c.3.4.6.9 1 1.2l-1.9 2.3zm1.2-3.7l2.7-1.6c.1.1.1.2.2.3l-2 2.4c-.3-.3-.6-.7-.9-1.1zm-4.2-3.4c0-.2 0-.4.1-.5l3.1.6c-.1.5-.1 1.1 0 1.6l-3.1.6c0-.2 0-.4-.1-.5l.2-.2v-1.3l-.2-.3zm16.9 1.6c0 .2 0 .4-.1.5l-3.1-.6c.1-.5.1-1.1 0-1.6l3.1-.6c0 .2.1.4.1.5l-.2.2v1.3l.2.3zm-2.2 4.6l-.9.9-1.9-2.3c.4-.3.7-.8 1-1.2l2.8 1.6c-.2.4-.5.7-.7 1.1l-.3-.1zm-9.5-9.1l2 2.4c-.1.1-.2.2-.2.3l-2.7-1.6c.2-.4.5-.7.9-1.1zm7.4 1.2l-2.7 1.6c-.1-.1-.1-.2-.2-.3l2-2.4c.3.3.7.6.9 1.1zm.8 2.5v.7l-3.1-.5v-.4l3.1-.6v.8zm-3.3.5l3.1.5c-.1.5-.3.9-.5 1.4l-2.7-1.6c.1-.1.1-.2.1-.3zm0-.9c0-.1-.1-.2-.1-.3l2.7-1.6c.2.4.4.9.5 1.4l-3.1.5zm-1.8-1.3c-.1 0-.2 0-.4.1l-1.1-3c.5-.2.9-.2 1.4-.3l.1 3.2zm-.6.1c-.1.1-.2.1-.3.2l-2-2.4c.4-.3.8-.5 1.3-.7l1 2.9zm-.9.9c0 .1-.1.2-.1.3l-3.1-.6c.1-.5.3-.9.5-1.4l2.7 1.7zm1.1 2.4c.1 0 .2.1.4.1v3.2c-.5 0-1-.1-1.4-.3l1-3zm-1.3 2.9l-.4-.1c.4-.6.7-1.3 1.1-1.9l-.7 2zm2-2.8c.1 0 .2 0 .4-.1l1.1 3c-.5.2-.9.2-1.4.3l-.1-3.2zm.9.8c.4.6.7 1.2 1.1 1.9l-.4.1-.7-2zm1 .1l1 1.2-.2.2c-.3-.5-.5-1-.8-1.4zm-.8-1.4c.1-.1.2-.2.2-.3l2.7 1.6c-.3.4-.6.8-1 1.1l-1.9-2.4zm3.4 1.2c.3-.5.4-1 .5-1.5l3.1.6a10.64 10.64 0 0 1-.9 2.5l-2.7-1.6zm.5-3.5c-.1-.5-.3-1-.5-1.5l2.8-1.6c.4.8.8 1.6.9 2.5l-3.2.6zm-.6-1.7c-.3-.5-.6-.9-1-1.2l1.9-2.3.9.9h.2c.3.3.5.7.7 1l-2.7 1.6zm-1.3-1.4c-.4-.3-.9-.6-1.4-.8l1.1-3c.8.3 1.6.8 2.3 1.4l-2 2.4zm-.2.3l-2 2.4c-.1-.1-.2-.1-.3-.2l1.1-3c.4.2.8.5 1.2.8zm-2.6 2.1c-.1 0-.2-.1-.4-.1v-3.2c.5 0 1 .1 1.4.3l-1 3zm-1.1-6.5h.5v3a4.53 4.53 0 0 0-1.6.3l-1.1-3c.6-.2 1.3-.4 2-.4l.2.1zm-1.3 3.3c-.5.2-.9.5-1.4.8l-2-2.4c.7-.6 1.5-1 2.3-1.3l1.1 2.9zm-4.4-.4l.9-.9 1.9 2.3c-.4.4-.7.8-1 1.2l-2.8-1.6c.2-.4.5-.7.7-1h.3zm1.7 2.8c-.3.5-.4 1-.5 1.5l-3.1-.6a10.64 10.64 0 0 1 .9-2.5l2.7 1.6zm-.3 2.5c0-.2 0-.5.1-.7l3.1.6v.4l-3.1.5c-.1-.3-.1-.5-.1-.8zm3.2.5c0 .1.1.2.1.3l-2.7 1.6c-.2-.4-.4-.9-.5-1.4l3.1-.5zm-.3 2.2l-.8 1.4-.2-.2 1-1.2zm.1 2.2l-1.1 3c-.3-.1-.6-.3-.9-.4l1.6-2.8a.76.76 0 0 0 .4.2zm5 3l-1.1-3a.76.76 0 0 0 .4-.2l1.6 2.8c-.3.2-.6.3-.9.4zm0-3.6l.3-.2 2.1 2.5a3.04 3.04 0 0 1-.7.5l-1.7-2.8zm-.3-12.3l-1.1 3c-.5-.2-1-.3-1.6-.3v-3h.5l.2-.2c.3 0 .6.1.9.1.4.1.8.3 1.1.4zm-11.1 9.6l3.1-.6c.1.5.3 1 .5 1.5l-2.8 1.6c-.3-.8-.6-1.6-.8-2.5zm3 5l2.1-2.5.3.2-1.6 2.8c-.3-.1-.6-.3-.8-.5zm.7 2.2l.4-.8c1 .5 2.2.9 3.4 1l.3.3h1.3l.2-.3c.3 0 .6-.1.8-.1.9-.2 1.8-.5 2.6-.9l2.7 4.5H152c.6-1.2 1.3-2.5 2.1-3.7z" fill="#30b8bb"/><path d="M169.7 186.9h-3.1l-2.4-4.1c-.1-.3-.3-.5-.5-.8.3-.2.5-.4.8-.6h.4l.9-.9v-.5a9.67 9.67 0 0 0 2-4.9l.3-.3v-1.3l-.3-.2a9.67 9.67 0 0 0-2-4.9v-.4l-.9-.9-.4.1a7.2 7.2 0 0 0-2.7-1.5c-.7-.3-1.5-.4-2.2-.5l-.2-.3h-.6v18.7h.6l.2-.3c.3 0 .6-.1.8-.1.9-.2 1.8-.5 2.6-.9l2.7 4.5h-6.9v1.7h12.1l-1.2-1.6zm-4.4-7.2h-.3l-.9.9-1.9-2.3c.4-.3.7-.8 1-1.2l2.8 1.6c-.2.4-.5.7-.7 1zm-4.8-5.2v-.4l3.1-.6v1.4l-3.1-.4zm3.1.8c-.1.5-.3.9-.5 1.4l-2.7-1.6c0-.1.1-.2.1-.3l3.1.5zm-3.1-1.4c0-.1-.1-.2-.1-.3l2.7-1.6c.2.4.4.9.5 1.4l-3.1.5zm-.3-.6c-.1-.1-.1-.2-.2-.3l2-2.4c.4.3.7.7.9 1.1l-2.7 1.6zm-.4-.4c-.1-.1-.2-.1-.3-.2l1.1-3c.5.2.9.4 1.3.7l-2.1 2.5zm1.1 5.9l-.4.1-.7-2c.4.6.7 1.2 1.1 1.9zm-.1-1.8l1 1.2-.2.2c-.3-.5-.5-1-.8-1.4zm-.8-1.4c.1-.1.2-.2.2-.3l2.7 1.6c-.3.4-.6.8-1 1.1l-1.9-2.4zm6.1 2.9l-2.8-1.6c.3-.5.4-1 .5-1.5l3.1.6c0 .8-.3 1.7-.8 2.5zm1.1-5l-.2.2v1.3l.2.2c0 .2 0 .4-.1.5l-3.1-.6c.1-.5.1-1.1 0-1.6l3.1-.6c0 .3.1.4.1.6zm-.1-.8l-3.1.6c-.1-.5-.3-1-.5-1.5l2.8-1.6.8 2.5zM165 169h.2c.3.3.5.6.8 1l-2.8 1.6c-.3-.5-.6-.9-1-1.2l1.9-2.3.9.9zm-.9-1.2l-2.1 2.4c-.4-.3-.9-.6-1.4-.8l1.1-3c.9.3 1.7.8 2.4 1.4zm-5.2-1.7h.5l.2-.2c.3 0 .6.1.9.1l1.1.3-1.1 3c-.5-.2-1-.3-1.6-.3v-2.9zm0 3.3c.5 0 1 .1 1.4.3l-1.1 3c-.1 0-.2-.1-.4-.1l.1-3.2zm0 6.7c.1 0 .2 0 .4-.1l1.1 3c-.5.2-.9.2-1.4.3l-.1-3.2zm.6 6.7l-.2-.2h-.5v-2.9a4.53 4.53 0 0 0 1.6-.3l1.1 3c-.6.2-1.3.3-2 .4zm2.3-.5l-1.1-3a.76.76 0 0 0 .4-.2l1.6 2.8c-.3.1-.6.3-.9.4zm0-3.6l.3-.2 2.1 2.5a3.04 3.04 0 0 1-.7.5l-1.7-2.8z" class="f g h"/><path d="M-1-1h460v300H-1z" opacity=".26" class="i"/></svg>